<?xml version="1.0" encoding="utf-8"?>
<!-- Generator: Adobe Illustrator 16.0.0, SVG Export Plug-In . SVG Version: 6.00 Build 0)  -->
<!DOCTYPE svg PUBLIC "-//W3C//DTD SVG 1.1//EN" "http://www.w3.org/Graphics/SVG/1.1/DTD/svg11.dtd">
<svg version="1.1" id="Layer_1" xmlns="http://www.w3.org/2000/svg" xmlns:xlink="http://www.w3.org/1999/xlink" x="0px" y="0px"
	 width="163px" height="51px" viewBox="0 0 163 51" enable-background="new 0 0 163 51" xml:space="preserve">
<g>
	<path fill="#FFFFFF" d="M25.404,28.313c-0.936-0.509-1.583-0.944-1.945-1.306c-0.565-0.564-0.847-1.245-0.847-2.041
		s0.282-1.479,0.847-2.049c0.565-0.57,1.245-0.854,2.042-0.854c0.796,0,1.458,0.264,1.986,0.792c0.509,0.509,0.764,1.093,0.764,1.75
		v0.056l-0.958,0.389c-0.083-0.62-0.278-1.088-0.583-1.403c-0.305-0.314-0.708-0.472-1.208-0.472c-0.491,0-0.912,0.176-1.264,0.528
		s-0.528,0.773-0.528,1.264s0.176,0.912,0.528,1.264c0.204,0.213,0.634,0.528,1.292,0.944c1.046,0.564,1.792,1.069,2.236,1.514
		c0.695,0.704,1.042,1.542,1.042,2.515c0,1-0.347,1.85-1.042,2.549c-0.694,0.699-1.537,1.048-2.528,1.048s-1.833-0.349-2.528-1.048
		s-1.042-1.466-1.042-2.299l1.097-0.278c0,0.714,0.243,1.313,0.729,1.799c0.486,0.486,1.067,0.729,1.743,0.729
		s1.259-0.243,1.75-0.729s0.736-1.076,0.736-1.771c0-0.676-0.246-1.255-0.736-1.736C26.728,29.206,26.2,28.822,25.404,28.313z"/>
	<path fill="#FFFFFF" d="M33.91,15.146v19.64h-1.111v-19.64H33.91z"/>
	<path fill="#FFFFFF" d="M38.791,27.771c-0.028,0.194-0.042,0.402-0.042,0.625c0,1.537,0.544,2.847,1.632,3.931
		c1.088,1.083,2.4,1.625,3.938,1.625c1.537,0,2.852-0.547,3.944-1.639c0.185-0.186,0.361-0.38,0.528-0.584l1.181,0.417
		c-0.139,0.231-0.431,0.564-0.875,1c-1.315,1.324-2.908,1.986-4.778,1.986c-1.853,0-3.438-0.66-4.757-1.979
		c-1.32-1.319-1.979-2.905-1.979-4.757c0-1.871,0.66-3.463,1.979-4.778c1.319-1.314,2.905-1.972,4.757-1.972
		c1.87,0,3.463,0.658,4.778,1.972c1.157,1.167,1.736,2.551,1.736,4.153H38.791z M38.999,26.646h10.584
		c-0.259-0.843-0.699-1.574-1.32-2.195c-1.093-1.092-2.408-1.639-3.944-1.639c-1.538,0-2.853,0.547-3.945,1.639
		C39.726,25.109,39.268,25.841,38.999,26.646z"/>
	<path fill="#FFFFFF" d="M54.686,27.771c-0.028,0.194-0.042,0.402-0.042,0.625c0,1.537,0.544,2.847,1.632,3.931
		c1.088,1.083,2.4,1.625,3.938,1.625c1.537,0,2.852-0.547,3.944-1.639c0.185-0.186,0.361-0.38,0.528-0.584l1.181,0.417
		c-0.139,0.231-0.431,0.564-0.875,1c-1.315,1.324-2.908,1.986-4.778,1.986c-1.853,0-3.438-0.66-4.757-1.979
		c-1.32-1.319-1.979-2.905-1.979-4.757c0-1.871,0.66-3.463,1.979-4.778c1.319-1.314,2.905-1.972,4.757-1.972
		c1.87,0,3.463,0.658,4.778,1.972c1.157,1.167,1.736,2.551,1.736,4.153H54.686z M54.895,26.646h10.584
		c-0.259-0.843-0.699-1.574-1.32-2.195c-1.093-1.092-2.408-1.639-3.944-1.639c-1.538,0-2.853,0.547-3.945,1.639
		C55.621,25.109,55.163,25.841,54.895,26.646z"/>
	<path fill="#FFFFFF" d="M79.957,22.729l-5.389,12.056h-0.583L68.65,22.729h1.292l4.334,10.042l4.389-10.042H79.957z"/>
	<path fill="#FFFFFF" d="M83.31,27.771c-0.028,0.194-0.042,0.402-0.042,0.625c0,1.537,0.545,2.847,1.633,3.931
		c1.088,1.083,2.4,1.625,3.938,1.625s2.852-0.547,3.944-1.639c0.185-0.186,0.361-0.38,0.528-0.584l1.18,0.417
		c-0.139,0.231-0.43,0.564-0.875,1c-1.314,1.324-2.907,1.986-4.777,1.986c-1.853,0-3.438-0.66-4.758-1.979
		c-1.319-1.319-1.979-2.905-1.979-4.757c0-1.871,0.659-3.463,1.979-4.778c1.32-1.314,2.905-1.972,4.758-1.972
		c1.87,0,3.463,0.658,4.777,1.972c1.158,1.167,1.736,2.551,1.736,4.153H83.31z M83.518,26.646h10.584
		c-0.259-0.843-0.699-1.574-1.319-2.195c-1.093-1.092-2.407-1.639-3.944-1.639s-2.853,0.547-3.945,1.639
		C84.244,25.109,83.787,25.841,83.518,26.646z"/>
	<path fill="#FFFFFF" d="M111.623,34.785h-1.111v-2.458c-0.213,0.287-0.445,0.561-0.695,0.819c-1.314,1.324-2.907,1.986-4.777,1.986
		c-1.853,0-3.438-0.66-4.758-1.979c-1.319-1.319-1.979-2.905-1.979-4.757c0-1.871,0.659-3.463,1.979-4.778
		c1.32-1.314,2.905-1.972,4.758-1.972c1.87,0,3.463,0.658,4.777,1.972c0.25,0.259,0.482,0.533,0.695,0.82v-9.292h1.111V34.785z
		 M110.512,29.479v-2.181c-0.204-1.083-0.713-2.032-1.528-2.847c-1.093-1.092-2.407-1.639-3.944-1.639s-2.85,0.547-3.938,1.639
		c-1.089,1.093-1.633,2.408-1.633,3.945s0.544,2.847,1.633,3.931c1.088,1.083,2.4,1.625,3.938,1.625s2.852-0.547,3.944-1.639
		C109.799,31.498,110.308,30.554,110.512,29.479z"/>
	<path fill="#55abb9" d="M116.928,33.077c0.217,0.213,0.326,0.472,0.326,0.777s-0.109,0.565-0.326,0.778
		c-0.219,0.213-0.475,0.319-0.771,0.319c-0.306,0-0.567-0.106-0.785-0.319c-0.217-0.213-0.326-0.473-0.326-0.778
		s0.109-0.564,0.326-0.777c0.218-0.213,0.479-0.319,0.785-0.319C116.453,32.758,116.709,32.864,116.928,33.077z"/>
	<path fill="#55abb9" d="M122.42,18.785c0.217,0.213,0.326,0.468,0.326,0.764c0,0.314-0.109,0.579-0.326,0.792
		c-0.219,0.213-0.475,0.319-0.771,0.319c-0.306,0-0.567-0.106-0.785-0.319c-0.217-0.213-0.326-0.477-0.326-0.792
		c0-0.296,0.109-0.551,0.326-0.764c0.218-0.213,0.479-0.319,0.785-0.319C121.945,18.465,122.201,18.572,122.42,18.785z
		 M122.189,22.729v12.056h-1.097V22.729H122.189z"/>
	<path fill="#55abb9" d="M133.002,21.646c1.87,0,3.461,0.658,4.771,1.972c1.31,1.315,1.965,2.908,1.965,4.778
		c0,1.852-0.655,3.438-1.965,4.757c-1.311,1.319-2.901,1.979-4.771,1.979c-1.853,0-3.438-0.66-4.758-1.979
		c-1.319-1.319-1.979-2.905-1.979-4.757c0-1.871,0.659-3.463,1.979-4.778C129.564,22.304,131.149,21.646,133.002,21.646z
		 M129.064,24.452c-1.089,1.093-1.633,2.408-1.633,3.945s0.544,2.847,1.633,3.931c1.088,1.083,2.4,1.625,3.938,1.625
		s2.85-0.542,3.938-1.625c1.088-1.084,1.632-2.394,1.632-3.931s-0.544-2.852-1.632-3.945c-1.088-1.092-2.4-1.639-3.938-1.639
		S130.152,23.359,129.064,24.452z"/>
</g>
<g>
	<path fill="#55abb9" d="M163,51H0V0h163V51z M2,49h159V2H2V49z"/>
</g>
</svg>
